<svg version="1.1" xmlns="http://www.w3.org/2000/svg" xmlns:xlink="http://www.w3.org/1999/xlink" width="142.34789" height="139.52237" viewBox="0,0,142.34789,139.52237"><g transform="translate(-168.82605,-110.23881)"><g data-paper-data="{&quot;isPaintingLayer&quot;:true}" fill="#000000" fill-rule="nonzero" stroke="none" stroke-linecap="butt" stroke-linejoin="miter" stroke-miterlimit="10" stroke-dasharray="" stroke-dashoffset="0" style="mix-blend-mode: normal"><path d="M171.08486,249.76119l-2.25881,-136.9795l140.08908,-2.54287l2.25881,136.9795zM178.13662,127.45262c-1.17265,4.32158 -1.31485,7.73831 -1.2415,12.18663c0.03627,2.19929 0.61243,5.25443 0.24503,7.39484c-0.17807,1.0374 -0.77313,1.97167 -0.90352,3.01685c-0.24741,1.98308 0.43679,4.03077 0.09893,5.9991c-1.04821,6.10667 -1.95692,14.28986 -0.0138,20.43196c0.18173,0.57445 0.65598,0.95896 1.1477,1.32903c-0.50607,1.85162 0.11918,3.88403 0.15113,5.82163c0.19314,11.71236 -0.6781,24.20801 1.66303,35.57696c1.08767,5.28191 -2.72205,8.09356 1.91065,14.21273c2.12545,2.80743 5.91654,3.68724 9.14631,4.8585c1.38237,0.50131 2.92499,0.04998 4.38761,0.0495c4.76312,-0.00157 9.5323,-0.17303 14.2948,-0.25948c20.96571,-0.38057 41.93143,-0.76113 62.89714,-1.1417c1.41596,-0.16316 2.79334,0.60069 4.20576,0.79466c4.4931,0.61705 11.32036,0.67872 15.82345,-0.15808c2.83003,-0.5259 6.21141,-0.0859 8.40005,-2.04034c2.60229,-2.32382 3.51442,-6.20749 4.63078,-9.59608c0.47781,-1.45035 0.04764,-3.06882 0.04718,-4.60337c-0.0009,-2.99803 -0.09896,-6.00102 -0.14839,-8.99865c-0.05213,-3.16118 -0.82157,-7.32374 -0.2945,-10.39439c0.79445,-4.62831 0.9302,-8.86381 0.85178,-13.61932c-0.14146,-8.5785 0.78118,-18.14056 -0.56166,-26.59561c-0.33027,-2.07951 -1.69437,-3.88165 -2.0049,-5.96451c-0.67847,-4.55081 -0.97341,-8.68607 -1.05084,-13.38111c-0.02418,-1.46647 -0.44334,-2.95182 -0.19557,-4.39529c0.83958,-4.89125 2.67538,-12.43593 -1.2186,-16.73633c-2.55569,-2.82243 -6.82514,-3.05722 -10.23771,-4.58583c-4.83721,-0.00226 -9.67109,0.10061 -14.50744,0.1884c-1.71529,0.03114 -3.44414,0.47837 -5.14226,0.22249c-2.72833,-0.41113 -5.45972,-0.98678 -8.21604,-0.98016c-19.36943,0.04652 -38.76755,0.7037 -58.1322,1.05521c-5.33218,0.09679 -11.56363,-0.49203 -16.13274,3.28122c-7.47834,-1.0542 -9.89965,7.03051 -9.89965,7.03051z" stroke-width="0"/><path d="" stroke-width="0"/><text transform="translate(196.90838,203.76875) scale(1.75455,2.06013)" font-size="40" xml:space="preserve" fill="#000000" fill-rule="nonzero" stroke="none" stroke-width="1" stroke-linecap="butt" stroke-linejoin="miter" stroke-miterlimit="10" stroke-dasharray="" stroke-dashoffset="0" font-family="Sans Serif" font-weight="normal" text-anchor="start" style="mix-blend-mode: normal"><tspan x="0" dy="0">aA</tspan></text></g></g></svg>