<svg version="1.1" xmlns="http://www.w3.org/2000/svg" xmlns:xlink="http://www.w3.org/1999/xlink" width="168.83359" height="169.05297" viewBox="0,0,168.83359,169.05297"><g transform="translate(-155.49149,-95.62983)"><g data-paper-data="{&quot;isPaintingLayer&quot;:true}" fill-rule="nonzero" stroke-linejoin="miter" stroke-miterlimit="10" stroke-dasharray="" stroke-dashoffset="0" style="mix-blend-mode: normal"><path d="M320.41766,151.16269l-108.66887,109.6133l-52.38147,-52.87894l107.94112,-108.40071z" fill="none" stroke="#000000" stroke-width="5.5" stroke-linecap="round"/><path d="M216.85469,153.33331l51.41178,48.99825" fill="none" stroke="#000000" stroke-width="5.5" stroke-linecap="round"/><path d="M236.9878,130.77987l52.13953,47.78566" fill="none" stroke="#000000" stroke-width="5.5" stroke-linecap="round"/><path d="M191.87024,181.22196c0,0 13.68571,13.35599 22.43417,21.94294c8.54566,8.3879 29.46246,28.99565 29.46246,28.99565" fill="none" stroke="#000000" stroke-width="5.5" stroke-linecap="round"/><path d="M275.75286,178.6206c-0.00572,-0.00225 -0.01144,-0.0045 -0.01718,-0.00677c0.00155,0.0053 0.00308,0.01061 0.00462,0.01593c0.00418,-0.00306 0.00837,-0.00611 0.01255,-0.00916zM237.64988,128.69081c6.46211,-0.23979 6.52223,3.36473 9.22545,6.63083c2.50219,3.02322 6.87397,3.71726 9.60725,6.43093c2.71183,2.69237 4.94903,7.30522 6.78974,10.67237c4.16168,2.06746 7.09958,3.99797 9.70247,7.93204c1.16327,1.75819 2.27718,3.54867 3.39487,5.33618c0.67717,1.08299 0.91111,2.7975 2.12759,3.1869c0.85456,0.27355 1.88245,-0.31917 2.69093,0.07003c1.94061,0.93418 4.35966,1.79837 5.25731,3.75615c1.16636,2.54382 1.04611,5.68925 0.31162,8.38962c-0.7564,2.78093 -4.12249,4.0284 -6.17583,6.05065c-0.51658,0.50875 -0.57077,1.3531 -1.02406,1.91895c-0.51846,0.6472 -1.5136,0.90688 -1.84768,1.66587c-0.36148,0.82125 0.22334,1.84296 -0.07003,2.69093c-0.48729,1.40849 -1.19188,2.79708 -2.20636,3.88893c-1.66818,1.7954 -3.3167,4.10475 -5.71021,4.63139c-4.49553,0.98914 -9.46279,-4.85676 -11.49465,-7.8419c-1.57601,-2.88296 -4.66382,-4.43967 -6.83177,-7.22713c-1.13199,-1.45547 -1.54148,-3.44856 -2.86626,-4.73104c-2.77969,-2.69092 -7.15817,-4.10254 -9.94316,-6.79217c-0.8748,-0.84485 -1.25793,-2.09245 -2.03335,-3.02933c-1.25768,-1.51957 -3.37429,-2.11305 -4.75688,-3.51993c-1.59115,-1.61911 -2.23941,-3.98597 -3.73078,-5.69743c-0.78958,-0.9061 -1.8885,-1.51055 -2.66761,-2.42567c-0.57882,-0.67987 -0.73396,-1.6717 -1.36152,-2.30685c-0.84378,-0.85398 -2.28541,-1.0634 -2.95379,-2.06064c-0.91458,-1.36457 -1.04024,-3.11639 -1.56036,-4.67459c0,0 -1.21211,-4.85086 3.63875,-6.06296c0.37915,-0.09474 0.73608,-0.15244 1.07194,-0.17831c-0.1474,-2.36004 1.40292,-4.56308 3.7794,-5.1569c0.57611,-0.14395 1.15385,-0.18162 1.71254,-0.12541l0.08975,0.00692c1.60127,-5.08278 -1.64048,-11.07682 7.83472,-11.4284zM255.95767,169.13634c0.00867,-0.17478 0.01698,-0.34978 0.02563,-0.52458c-0.18121,0.01321 -0.36327,0.02946 -0.54483,0.04524c0.1653,0.16644 0.33997,0.32491 0.5192,0.47933z" fill="#000000" stroke="none" stroke-width="0.5" stroke-linecap="butt"/></g></g></svg>