<svg version="1.1" xmlns="http://www.w3.org/2000/svg" xmlns:xlink="http://www.w3.org/1999/xlink" width="173" height="164" viewBox="0,0,173,164"><g transform="translate(-157,-98.5)"><g data-paper-data="{&quot;isPaintingLayer&quot;:true}" fill-rule="nonzero" stroke-linecap="butt" stroke-linejoin="miter" stroke-miterlimit="10" stroke-dasharray="" stroke-dashoffset="0" style="mix-blend-mode: normal"><path d="M159,260.5v-160h169v160zM185.46593,215.82481c0.10974,-1.0426 0.26523,-2.11886 0.14997,-3.15735c0.16404,-0.11387 0.3047,-0.26031 0.39061,-0.41014c0.61993,-1.08116 3.13899,-8.1419 3.36437,-9.65549c0.5786,-3.88581 0.6282,-10.25342 0,-14.20364c-0.36123,-2.27147 -1.65874,-4.33798 -1.9458,-6.62001c-0.14063,-1.118 0.14663,-2.27122 -0.0542,-3.37999c-0.37574,-2.07443 -1.73469,-3.90858 -2,-6c-0.22651,-1.7856 0.12913,-3.59827 0.12913,-5.39818c0,-4 0,-8 0,-12c0,-1.46669 -0.41401,-2.95942 -0.12913,-4.39818c1.29016,-6.5157 2.00279,-14.4524 1,-21.20364c-0.83591,-5.62773 -2.87087,-10.6546 -2.87087,-16.39818c0,0 0,-10 -10,-10c-10,0 -10,10 -10,10c0,1.5045 -0.02805,6.65013 0.12913,7.60182c0.34352,2.08001 1.71028,3.91182 2,6c0.27865,2.00835 0.60617,4.01103 1,6c0.28489,1.43876 -0.12913,2.93149 -0.12913,4.39818c0,2.19962 0.55156,5.26476 0.12913,7.39818c-0.20474,1.03402 -0.84513,1.95735 -1,3c-0.93052,6.26472 -0.12913,13.26643 -0.12913,19.60182c0,1.88047 -0.02304,7.57986 0.12913,8.60182c0.31049,2.0852 1.71102,3.91171 2,6c0.80313,5.80383 2.76185,11.79068 2,17.79636c-0.35533,2.80111 -2.3724,2.85202 -3.36792,5.77499c-0.97057,2.8497 -0.37389,6.01238 -0.72713,9.00203c-1.02676,8.69005 -2.10227,17.48143 0.47909,25.98708l7.0147,6.78199c0,0 8.94427,4.47214 13.41641,-4.47214c2.96107,-5.92214 0.04043,-9.88372 -2.27131,-11.88471c-0.55742,-4.75861 0.86469,-10.69361 1.29296,-14.76262zM296.5,230v-2c0,-5.00202 -0.69936,-10.46215 -0.12913,-15.39818c0.29304,-2.53665 1.46414,-4.89558 2.0542,-7.37999c-0.06175,-4.12403 0.9015,-5.88541 1.8313,-10.02795c0.83832,-3.735 1.2356,-8.11781 2.62247,-11.72442c1.42071,-3.69461 3.34274,-7.22473 4.32627,-11.05894c2.20979,-8.61471 3.24164,-17.67114 5.08536,-26.37422c0.62652,-2.95745 1.767,-5.81381 2.1346,-8.81446c0.87552,-7.14689 0.07492,-14.97437 0.07492,-22.22183c0,0 0,-10 -10,-10c-10,0 -10,10 -10,10c0,6.41622 0.88497,13.46071 0.07492,19.77817c-0.31472,2.45448 -1.34078,4.76721 -1.8654,7.18554c-1.8376,8.47069 -2.88613,17.20324 -4.91464,25.62578c-0.75445,3.13255 -2.56013,5.91749 -3.67373,8.94106c-1.66347,4.51652 -2.34914,9.59419 -3.37753,14.27558c-0.93404,4.25195 -2.11408,7.5583 -2.1687,11.97205c-0.61749,2.21558 -1.65026,4.33906 -1.9458,6.62001c-0.77797,6.00433 -0.12913,12.53143 -0.12913,18.60182v2c0,0 0,10 10,10c10,0 10,-10 10,-10zM222.5,230c0,-14.33333 0,-29.66667 0,-44c0,-9 0,-18 0,-27c0,-4.81644 -0.64017,-10.0255 -0.07492,-14.77817c0.16231,-1.36475 0.82183,-2.63723 1,-4c0.26949,-2.0613 -0.22629,-4.17302 0.02626,-6.23646c0.52113,-4.25789 1.92574,-7.60442 2.04867,-11.98538c0,0 0,-10 -10,-10c-10,0 -10,10 -10,10c0.27088,2.93312 -1.62677,7.44564 -1.95133,10.01462c-0.24081,1.90605 0.32997,3.8665 0.02626,5.76354c-0.21727,1.35709 -0.85626,2.63317 -1,4c-0.48651,4.62642 -0.07492,9.55803 -0.07492,14.22183c0,10 0,20 0,30c0,14.33333 0,29.66667 0,44c0,0 0,10 10,10c10,0 10,-10 10,-10zM248.5,236l10.48683,-6.83772c1.65844,-4.97533 3.22403,-9.82814 4.43824,-14.94045c0.02887,-3.81471 0.64154,-7.60316 1.04085,-11.39703c0.23039,-2.18894 -0.29344,-4.41648 -0.04085,-6.60297c0.43409,-3.75756 2.54559,-7.16805 3,-11c0.40812,-3.44159 -0.28667,-6.94684 0.04085,-10.39703c0.19162,-2.01851 0.82122,-3.98031 1,-6c0.12415,-1.40253 -0.35084,-2.83839 -0.09505,-4.22298c0.33341,-1.80474 1.40217,-3.40761 1.83425,-5.1913c0.60346,-2.49121 1.02848,-5.03301 1.2608,-7.58571c0.15783,-1.73412 -0.38322,-3.50571 -0.09505,-5.22298c0.31011,-1.84799 1.45304,-3.47555 1.86162,-5.30429c1.5893,-7.11349 1.26751,-14.09188 1.26751,-21.29753c0,0 0,-10 -10,-10c-10,0 -10,10 -10,10c0,5.50266 0.56222,11.28984 -0.73249,16.70247c-0.54506,2.27868 -1.75521,4.38429 -2.13838,6.69571c-0.61178,3.69042 0.10312,7.56987 -0.83425,11.1913c-0.59679,2.30563 -1.74468,4.4646 -2.16575,6.8087c-0.34051,1.89559 0.08326,3.85936 -0.09505,5.77702c-0.18772,2.01888 -0.82336,3.98012 -1,6c-0.27886,3.18885 0.3496,6.41688 0.04085,9.60297c-0.35883,3.70297 -2.51507,7.25736 -3,11c-0.31683,2.44527 0.24847,4.94835 -0.04085,7.39703c-0.4164,3.52424 -0.99064,7.05436 -0.95915,10.60297c-0.64464,2.31299 -1.38769,4.59512 -2.15119,6.87109c-1.64393,1.47567 -2.92373,3.7733 -2.92373,7.35074c0,10 10,10 10,10z" fill="#000000" stroke="#000000" stroke-width="4"/><path d="M182.57107,243.07107c-7.07107,7.07107 -14.14214,0 -14.14214,0l-2.24944,-2.52407c-0.97276,-1.57339 -2.27845,-2.98453 -2.91829,-4.72017c-2.38816,-6.47814 -2.00672,-14.01899 -1.7612,-20.82683c0.09502,-2.63478 -0.32279,-5.37083 0.42908,-7.89784c0.71279,-2.39568 2.41592,-4.3862 3.8375,-6.44205c0.82276,-1.18986 2.87772,-1.81539 2.86255,-3.26193c-0.02863,-2.72982 0.45348,-6.15302 0,-8.79636c-0.35647,-2.07783 -1.62038,-3.92628 -2,-6c-1.03641,-5.66148 -1.26499,-10.6028 1,-16.20364c-0.49864,-5.39933 -0.12913,-10.9754 -0.12913,-16.39818c0,-1.46669 0.37712,-2.95261 0.12913,-4.39818c-0.86823,-5.06084 -3.15879,-9.90643 -4,-15c-0.91576,-5.54497 -0.12913,-11.98251 -0.12913,-17.60182c0,0 0,-10 10,-10c10,0 10,10 10,10c0,4.4504 -0.87718,10.03778 -0.12913,14.39818c0.86823,5.06084 3.15879,9.90643 4,15c0.54624,3.30753 0.12913,7.22726 0.12913,10.60182c0,5.53653 0.02618,11.06714 -0.12913,16.60182c-0.42322,1.39802 -0.75731,2.82619 -1.26967,4.19405c-0.11943,0.31885 -0.64366,0.48169 -0.60857,0.82036c0.06826,0.65868 0.75862,1.13063 0.87824,1.78194c0.18064,0.98355 -0.13743,2.00949 0,3c0.28972,2.08818 1.65648,3.91999 2,6c0.66555,4.02994 0.77866,11.19092 0,15.20364c-0.90521,4.66485 -2.32134,7.01182 -5.13745,10.73807c-0.56845,0.75217 -1.23504,1.44889 -2,2c-0.05002,0.03604 -0.08965,-0.0483 -0.11784,-0.15465c0.49184,3.27264 0.40751,6.48521 0.38441,9.81476c-0.01851,2.66805 -0.42177,4.39161 1.3205,6.453l-0.24944,-0.52407c0,0 7.07107,7.07107 0,14.14214z" fill="#ff0000" stroke="none" stroke-width="0.5"/><path d="M222.49646,223.71502c0.49646,1.28974 0.79675,2.60892 0.00354,4.28498l0,3c0,5.52285 -4.47715,10 -10,10c-4.49839,0 -8.30305,-2.97024 -9.55975,-7.05648l-0.92708,-2.78124c-1.58027,-5.20704 -1.61238,-10.41253 -1.55281,-15.7406c-0.35837,-2.91219 -0.35221,-5.97351 -0.83123,-8.81986c-0.17493,-1.03948 -0.86281,-1.95487 -1,-3c-0.1829,-1.39332 -0.12913,-11.90574 -0.12913,-12.60182c0,-9.66667 0,-19.33333 0,-29c0,-3.2782 -0.38642,-6.99099 0.07492,-10.22183c0.36097,-2.52787 1.67056,-4.85546 2.0542,-7.37999c0.15024,-0.98865 -0.51871,-2.14505 0,-3c3.00229,-4.9484 5.23127,-8.88442 7.75953,-10.64595c-0.63606,-1.85958 -1.94166,-3.50699 -2.83293,-5.28009c0,0 -4.47214,-8.94427 4.47214,-13.41641c8.94427,-4.47214 13.41641,4.47214 13.41641,4.47214c1.78694,3.58973 4.02171,7.70062 4.87529,11.58106c0.37879,1.722 -0.17053,3.5401 0.05131,5.28925c0.13263,1.04572 0.84513,1.95735 1,3c0.83661,5.63248 0.12913,11.89593 0.12913,17.60182c0,5.08983 0.53143,10.56962 -0.12913,15.60182c-0.45064,3.43301 -1.67948,6.77299 -2.41715,10.17257c0.04295,0.10749 0.08219,0.21665 0.1172,0.32776c0.46971,1.49089 0.12974,3.12907 0.35416,4.67601c0.5805,4.00155 1.95741,7.03364 2.07492,11.22183c0,5.52959 0.33965,10.5459 -1.7612,15.82683c-1.42932,3.59288 -4.90647,7.77895 -5.24234,11.88819z" fill="#0046ff" stroke="none" stroke-width="0.5"/><path d="M235.50741,231.76913c0.06567,-7.11179 0.70928,-13.97774 6.97606,-18.89127c-0.32726,-2.47204 -0.22065,-5.01351 0.14566,-7.47968c0.15487,-1.04265 0.79526,-1.96598 1,-3c0.60471,-3.05398 -0.3612,-7.70065 -0.0542,-10.62001c0.14374,-1.36683 0.80565,-2.63944 1,-4c0.65135,-4.55984 0.89978,-8.87227 2.26008,-13.34485c0.54951,-2.81056 1.33489,-5.58008 1.71366,-8.4187c0.48727,-3.65164 -0.69511,-7.20711 0.38041,-10.91247c1.04572,-3.60266 4.15426,-6.77018 4.70005,-10.70398c1.0259,-7.39424 2.22012,-16.58612 0.16945,-23.97282c0,0 -2.42536,-9.70143 7.27607,-12.12678c9.70143,-2.42536 12.12678,7.27607 12.12678,7.27607c1.4604,6.21031 1.29857,12.08961 1.29857,18.42536c0,1.57389 0.02805,6.54365 -0.12913,7.60182c-0.15487,1.04265 -0.82671,1.96025 -1,3c-0.1644,0.98639 0.18007,2.01635 0,3c-0.85301,4.65967 -2.92681,9.41827 -5.29995,13.29602c-0.07675,0.1254 0.40894,-0.04348 0.42908,0.10216c0.31903,2.30656 0.2285,4.67342 -0.04867,6.98538c-0.13299,1.10935 -2.03048,10.32413 -2.28634,11.5813c-0.61765,1.58289 -0.51479,3.35913 -0.79412,5.03514c-0.53685,3.22109 -1.55362,6.32255 -1.9458,9.62001c-0.44492,3.74097 0.50493,7.61567 -0.0542,11.37999c-0.15487,1.04265 -0.79526,1.96598 -1,3c-0.67667,3.41741 0.94546,6.69401 -0.29995,10.29602c-0.81676,2.36226 -2.41933,4.38385 -3.8375,6.44205c-0.13253,0.19234 -2.95645,2.71979 -3.09627,3.32945c-0.0352,0.15347 -0.06134,0.30755 -0.07974,0.46216c0.44259,1.61727 0.44259,2.8685 0.44259,2.8685l-0.21424,0.02142c0.11071,0.66028 0.21424,1.32166 0.21424,1.97858l-10,-1l-10,1c0,-0.66754 0.00045,-1.33449 0.00547,-1.99945l-0.00547,-0.00055c0,0 0,-0.0819 0.00741,-0.23087z" fill="#f9ff00" stroke="none" stroke-width="0.5"/><path d="M286.5,238c-10,0 -10,-10 -10,-10v-1c0,-9.78682 -0.74619,-20.03217 1.12913,-29.60182c0.82464,-4.20811 3.07431,-7.5718 4.38404,-11.56046c1.17308,-3.57251 1.89069,-6.7845 2.61596,-10.43954c0.34146,-1.72082 -0.00351,-3.58983 0.63208,-5.22501c0.46667,-1.2006 1.49556,-2.08546 2.38272,-3.03961c0.05814,-1.35093 -0.12874,-2.74924 0.28515,-4.0314c0.49203,-1.52421 1.71298,-2.71339 2.42578,-4.14769c0.67713,-1.36253 0.00309,-3.05914 0.27427,-4.55629c0.37574,-2.07443 1.66756,-3.91819 2,-6c0.22637,-1.41753 -0.13163,-2.92694 0.29995,-4.29602c0.36134,-1.14625 1.5915,-1.8697 2,-3c0.19602,-0.54239 -0.38485,-1.13354 -0.29995,-1.70398c0.49587,-3.33203 0.87087,-3.94919 0.87087,-7.39818c0,-5.43445 0.7537,-11.33314 -0.70143,-16.57464c0,0 -2.42536,-9.70143 7.27607,-12.12678c9.70143,-2.42536 12.12678,7.27607 12.12678,7.27607c1.4604,6.21031 1.29857,12.08961 1.29857,18.42536c0,3.40932 0.3694,7.2455 -0.12913,10.60182c-0.15487,1.04265 -0.8151,1.96225 -1,3c-0.2518,1.41324 0.13163,2.92694 -0.29995,4.29602c-0.36134,1.14625 -1.5915,1.8697 -2,3c-0.19602,0.54239 0.3983,1.1357 0.29995,1.70398c-0.35949,2.07731 -1.71102,3.91171 -2,6c-0.11974,0.86528 0.21123,1.76072 0.0542,2.62001c-0.42256,2.31238 -0.9323,4.63117 -1.77993,6.8237c-0.29219,0.75578 -1.3009,1.0895 -1.57422,1.85231c-0.19454,0.54293 0.19997,1.13599 0.29995,1.70398c-0.78812,2.2185 -1.30692,4.552 -2.36437,6.65549c-0.20807,0.4139 -1.06971,0.15071 -1.26771,0.56952c-0.14248,0.30137 0.66442,0.44321 0.63208,0.77499c-0.10225,1.04912 -0.82671,1.96025 -1,3c-0.4212,2.52717 -0.61355,5.11702 -1.38404,7.56046c-0.18946,0.60082 -2.15199,6.43791 -2.24804,6.66456c-0.69321,1.6358 -2.20445,3.0059 -2.36792,4.77499c-0.80898,8.75454 -0.87087,17.489 -0.87087,26.39818v1c0,0 0,10 -10,10z" fill="#04ff00" stroke="none" stroke-width="0.5"/></g></g></svg>